<?xml version="1.0" encoding="UTF-8" standalone="no"?>
<!-- Created with Inkscape (http://www.inkscape.org/) -->

<svg
   width="5mm"
   height="10mm"
   viewBox="0 0 5 10"
   version="1.1"
   id="svg38926"
   inkscape:version="1.2.2 (b0a8486, 2022-12-01)"
   sodipodi:docname="chave-tras.svg"
   xmlns:inkscape="http://www.inkscape.org/namespaces/inkscape"
   xmlns:sodipodi="http://sodipodi.sourceforge.net/DTD/sodipodi-0.dtd"
   xmlns="http://www.w3.org/2000/svg"
   xmlns:svg="http://www.w3.org/2000/svg">
  <sodipodi:namedview
     id="namedview38928"
     pagecolor="#ffffff"
     bordercolor="green"
     borderopacity="0.25"
     inkscape:showpageshadow="2"
     inkscape:pageopacity="0.0"
     inkscape:pagecheckerboard="0"
     inkscape:deskcolor="pink"
     inkscape:document-units="mm"
     showgrid="false"
     inkscape:zoom="1.5031977"
     inkscape:cx="26.277316"
     inkscape:cy="45.902146"
     inkscape:window-width="1309"
     inkscape:window-height="456"
     inkscape:window-x="0"
     inkscape:window-y="25"
     inkscape:window-maximized="0"
     inkscape:current-layer="layer1" />
  <defs
     id="defs38923" />
  <g
     inkscape:label="Layer 1"
     inkscape:groupmode="layer"
     id="layer1">
    <path
       d="m 1.8500708,0.76583277 c -0.73419,0.13213 -0.93541001,0.81253003 -0.74498,1.46827003 0.19844,0.68332 1.28042,0.46505 1.48297,1.08343 0.14758,0.45057 0.0744,1.062 0.0744,1.5345 0,1.07992 -0.0455,2.17085 0.002,3.24963 0.0219,0.49927 -0.10017,1.49086 0.67523,1.38886 0.78744,-0.10363 0.49647,-1.63696 0.49647,-2.20126 v -3.52044 c 0,-0.48929 0.11836,-1.16042 -0.0436,-1.62481 -0.26768,-0.7675 -1.0774,-1.53384003 -1.94228,-1.37818003 m 0.0452,0.44572003 c 0.6425,-0.12446 1.33989,0.50662 1.47175,1.11299 0.106,0.48744 0.0176,1.08123 0.0176,1.57969 v 3.20449 1.48941 c -6e-5,0.10909 0.0424,0.42264 -0.13541,0.42264 -0.15459,0 -0.13468,-0.23244 -0.13536,-0.33237 -0.002,-0.36102 -4e-5,-0.72218 -4e-5,-1.08321 0,-0.98008 -0.0451,-1.95573 -0.0451,-2.93369 0,-0.51629 0.0982,-1.14121 -0.11141,-1.62482 -0.26712,-0.6164 -1.03697,-0.41754 -1.38441,-0.91228 -0.22797,-0.32462 -0.0733,-0.8462 0.32238,-0.92285 m -0.96996001,1.9718 c -0.16379,0.11504 -0.17861,0.45089 -0.2124,0.63061 -0.14219,0.75599 0.0569,1.5651 0.73098001,1.99942 0.1806,0.11636 0.70324,0.40038 0.92058,0.25198 0.16951,-0.11576 0.11541,-0.75296 0.11768,-0.94252 0.005,-0.4508 0.2095,-1.33158 -0.15449,-1.6899 -0.19603,-0.19299 -0.5353,-0.22617 -0.7935,-0.26309 -0.16921,-0.0242 -0.45638,-0.0937 -0.60885001,0.0135 m 1.10532001,2.39082 c -0.66381,-0.11978 -0.94477,-0.78641 -0.91148,-1.39914 0.008,-0.15007 -0.006,-0.39289 0.0985,-0.51439 0.0955,-0.11058 0.28393,-0.0588 0.40673,-0.0383 0.57012,0.095 0.45755,0.57772 0.45085,1.04914 -0.004,0.30203 -0.0447,0.59983 -0.0447,0.90267"
       style="fill:red;stroke:none;stroke-width:0.0451337"
       id="path38195" />
  </g>
</svg>
